<svg width="96" height="96" viewBox="0 0 96 96" xmlns="http://www.w3.org/2000/svg" role="img" aria-label="Dynamax logo">
  <g fill="#ec4899">
    <path d="M8.62 69.51c12.14-10.66 22.92-26.27 31.43-44.68l14.1 24.52c-10.32 7.48-18.51 17.64-24.74 29.09z" />
    <path d="M87.38 69.51c-12.14-10.66-22.92-26.27-31.43-44.68l-14.1 24.52c10.32 7.48 18.51 17.64 24.74 29.09z" />
    <path d="M35.4 34.55c5.05-10.79 8.72-23.18 12.65-33.02 3.93 9.84 7.6 22.23 12.65 33.02 5.58-2.93 15.53-6.82 22.78-7.58-6.05 6.11-13.28 14.86-18.24 21.84-5.78-3.53-10.99-5.41-17.19-5.41s-11.41 1.88-17.19 5.41c-4.96-6.98-12.19-15.73-18.24-21.84 7.25 0.77 17.21 4.65 22.78 7.58z" />
    <rect x="43" y="44" width="4.5" height="16" rx="1.5" transform="skewX(-10)" />
    <rect x="51" y="44" width="4.5" height="16" rx="1.5" transform="skewX(-10)" />
    <rect x="59" y="44" width="4.5" height="16" rx="1.5" transform="skewX(-10)" />
  </g>
</svg>
